<svg width="203" height="52" viewBox="0 0 203 52" fill="none" xmlns="http://www.w3.org/2000/svg">
<path d="M77.4224 28.9685C77.9757 29.281 78.5356 29.5642 79.1021 29.8181C79.675 30.0655 80.2674 30.2771 80.8794 30.4529C81.4914 30.6222 82.1326 30.7524 82.8032 30.8435C83.4803 30.9347 84.1997 30.9802 84.9614 30.9802C85.8794 30.9802 86.6606 30.9216 87.3052 30.8044C87.9497 30.6807 88.4738 30.5147 88.8774 30.3064C89.2876 30.0916 89.5838 29.8376 89.7661 29.5447C89.9549 29.2517 90.0493 28.9327 90.0493 28.5876C90.0493 28.0343 89.8182 27.5981 89.356 27.2791C88.8937 26.9535 88.1808 26.7908 87.2173 26.7908C86.7941 26.7908 86.3481 26.8201 85.8794 26.8787C85.4106 26.9307 84.9354 26.9893 84.4536 27.0544C83.9784 27.1195 83.5063 27.1814 83.0376 27.24C82.5754 27.2921 82.1392 27.3181 81.729 27.3181C81.0454 27.3181 80.3879 27.2302 79.7563 27.0544C79.1313 26.8787 78.5747 26.615 78.0864 26.2634C77.6047 25.9119 77.2205 25.4724 76.9341 24.9451C76.6476 24.4177 76.5044 23.8025 76.5044 23.0994C76.5044 22.6827 76.5597 22.2693 76.6704 21.8591C76.7876 21.449 76.9699 21.0583 77.2173 20.6873C77.4712 20.3097 77.7967 19.9613 78.1938 19.6423C78.591 19.3168 79.0695 19.0369 79.6294 18.8025C80.1958 18.5681 80.8468 18.3858 81.5825 18.2556C82.3247 18.1189 83.1678 18.0505 84.1118 18.0505C84.7954 18.0505 85.4823 18.0896 86.1724 18.1677C86.8625 18.2393 87.533 18.3435 88.1841 18.4802C88.8416 18.6169 89.4731 18.783 90.0786 18.9783C90.6841 19.1671 91.2472 19.3787 91.7681 19.613L90.4106 22.113C89.981 21.9242 89.5187 21.7517 89.0239 21.5955C88.5291 21.4327 88.0116 21.2927 87.4712 21.1755C86.9308 21.0583 86.3709 20.9672 85.7915 20.9021C85.2186 20.8305 84.6326 20.7947 84.0337 20.7947C83.1808 20.7947 82.4777 20.8565 81.9243 20.9802C81.3774 21.1039 80.9412 21.2634 80.6157 21.4587C80.2902 21.6475 80.0623 21.8624 79.9321 22.1033C79.8084 22.3376 79.7466 22.572 79.7466 22.8064C79.7466 23.2621 79.9517 23.6365 80.3618 23.9294C80.772 24.2159 81.397 24.3591 82.2368 24.3591C82.5754 24.3591 82.9627 24.3363 83.3989 24.2908C83.8416 24.2387 84.3039 24.1833 84.7856 24.1248C85.2739 24.0662 85.7687 24.0141 86.27 23.9685C86.7778 23.9164 87.2694 23.8904 87.7446 23.8904C88.6431 23.8904 89.4373 23.9913 90.1274 24.1931C90.8241 24.3949 91.4067 24.6847 91.8755 25.0623C92.3442 25.4333 92.6991 25.8858 92.9399 26.4197C93.1808 26.947 93.3013 27.5395 93.3013 28.197C93.3013 29.0759 93.0962 29.8604 92.686 30.5505C92.2824 31.2341 91.703 31.8136 90.9478 32.2888C90.1991 32.7576 89.2941 33.1156 88.2329 33.363C87.1717 33.6039 85.9901 33.7244 84.688 33.7244C83.8286 33.7244 82.9888 33.669 82.1685 33.5583C81.3481 33.4542 80.5604 33.3044 79.8052 33.1091C79.0565 32.9073 78.3403 32.6697 77.6567 32.3962C76.9797 32.1163 76.3514 31.8103 75.772 31.4783L77.4224 28.9685ZM95.6548 27.7966C95.6548 26.8787 95.8273 26.0518 96.1724 25.3162C96.5174 24.574 96.9927 23.9425 97.5981 23.4216C98.2101 22.8943 98.9328 22.4906 99.7661 22.2107C100.606 21.9242 101.514 21.781 102.491 21.781C103.331 21.781 104.102 21.8787 104.805 22.074C105.508 22.2628 106.117 22.5102 106.631 22.8162V21.9861H109.522V38.2166H106.631V32.4255C106.377 32.6013 106.088 32.7673 105.762 32.9236C105.437 33.0798 105.088 33.2166 104.717 33.3337C104.346 33.4509 103.956 33.5421 103.545 33.6072C103.142 33.6788 102.732 33.7146 102.315 33.7146C101.338 33.7146 100.44 33.5714 99.6196 33.2849C98.8058 32.9985 98.106 32.5948 97.52 32.074C96.9341 31.5531 96.4751 30.9314 96.1431 30.2087C95.8175 29.4796 95.6548 28.6755 95.6548 27.7966ZM98.6919 27.7966C98.6919 28.2589 98.783 28.6951 98.9653 29.1052C99.1541 29.5154 99.4211 29.8767 99.7661 30.1892C100.118 30.4952 100.538 30.7393 101.026 30.9216C101.521 31.0974 102.074 31.1853 102.686 31.1853C103.077 31.1853 103.458 31.1495 103.829 31.0779C104.2 30.9998 104.551 30.8923 104.883 30.7556C105.222 30.6189 105.538 30.4529 105.831 30.2576C106.13 30.0623 106.397 29.8442 106.631 29.6033V25.6091C106.039 25.1404 105.427 24.8083 104.795 24.613C104.17 24.4112 103.529 24.3103 102.872 24.3103C102.208 24.3103 101.615 24.4014 101.094 24.5837C100.58 24.7595 100.144 25.0037 99.7856 25.3162C99.4341 25.6287 99.1639 25.9965 98.9751 26.4197C98.7863 26.8429 98.6919 27.3018 98.6919 27.7966ZM113.067 21.9763H115.948V27.6013C115.948 28.1352 116.006 28.6235 116.124 29.0662C116.241 29.5024 116.439 29.8767 116.719 30.1892C117.006 30.5017 117.383 30.7458 117.852 30.9216C118.327 31.0909 118.917 31.1755 119.62 31.1755C119.952 31.1755 120.287 31.1397 120.625 31.0681C120.971 30.9965 121.299 30.8988 121.612 30.7751C121.924 30.6449 122.214 30.4919 122.481 30.3162C122.754 30.1404 122.989 29.9483 123.184 29.74V21.9763H126.075V33.5095H123.184V32.5232C122.474 32.9464 121.762 33.2491 121.045 33.4314C120.329 33.6137 119.649 33.7048 119.004 33.7048C117.95 33.7048 117.045 33.5779 116.29 33.324C115.541 33.0701 114.926 32.7022 114.444 32.2205C113.969 31.7322 113.62 31.1365 113.399 30.4333C113.178 29.7237 113.067 28.9164 113.067 28.0115V21.9763ZM129.2 29.8767C129.2 29.3233 129.32 28.8188 129.561 28.363C129.802 27.9073 130.163 27.5167 130.645 27.1912C131.127 26.8591 131.726 26.6052 132.442 26.4294C133.165 26.2472 134.004 26.156 134.961 26.156C135.671 26.156 136.417 26.2081 137.198 26.3123C137.986 26.4164 138.796 26.5759 139.629 26.7908C139.597 26.4262 139.486 26.0909 139.297 25.7849C139.109 25.4724 138.845 25.2055 138.506 24.9841C138.174 24.7563 137.771 24.5805 137.295 24.4568C136.827 24.3331 136.293 24.2712 135.694 24.2712C135.368 24.2712 135.01 24.2908 134.62 24.3298C134.229 24.3689 133.825 24.4275 133.409 24.5056C132.992 24.5837 132.579 24.6814 132.168 24.7986C131.765 24.9158 131.387 25.0557 131.036 25.2185L130.157 22.8455C130.593 22.6892 131.058 22.546 131.553 22.4158C132.055 22.2856 132.566 22.1749 133.086 22.0837C133.607 21.9861 134.128 21.9112 134.649 21.8591C135.17 21.807 135.674 21.781 136.163 21.781C138.318 21.781 139.919 22.3311 140.967 23.4314C142.015 24.5317 142.54 26.2179 142.54 28.49V33.5095H139.649V32.4255C139.349 32.6013 139.021 32.7673 138.663 32.9236C138.311 33.0798 137.927 33.2166 137.51 33.3337C137.094 33.4509 136.644 33.5421 136.163 33.6072C135.687 33.6788 135.183 33.7146 134.649 33.7146C133.75 33.7146 132.959 33.6169 132.276 33.4216C131.599 33.2263 131.032 32.9561 130.577 32.6111C130.121 32.266 129.776 31.8624 129.542 31.4001C129.314 30.9314 129.2 30.4236 129.2 29.8767ZM132.247 29.7791C132.247 29.9679 132.295 30.1501 132.393 30.3259C132.491 30.4952 132.647 30.6482 132.862 30.7849C133.077 30.9151 133.35 31.0225 133.682 31.1072C134.021 31.1853 134.428 31.2244 134.903 31.2244C135.411 31.2244 135.902 31.1788 136.377 31.0876C136.853 30.9965 137.295 30.8761 137.706 30.7263C138.116 30.5766 138.487 30.4041 138.819 30.2087C139.151 30.0134 139.428 29.8116 139.649 29.6033V29.0955C139.206 28.9718 138.767 28.8676 138.331 28.783C137.901 28.6983 137.487 28.6332 137.09 28.5876C136.7 28.5356 136.329 28.4998 135.977 28.4802C135.632 28.4607 135.329 28.4509 135.069 28.4509C134.528 28.4509 134.079 28.4867 133.721 28.5583C133.363 28.63 133.073 28.7276 132.852 28.8513C132.631 28.9685 132.474 29.1085 132.383 29.2712C132.292 29.434 132.247 29.6033 132.247 29.7791ZM145.479 27.7966C145.479 26.8787 145.652 26.0518 145.997 25.3162C146.342 24.574 146.817 23.9425 147.422 23.4216C148.034 22.8943 148.757 22.4906 149.59 22.2107C150.43 21.9242 151.338 21.781 152.315 21.781C152.732 21.781 153.142 21.807 153.545 21.8591C153.956 21.9112 154.346 21.9828 154.717 22.074C155.095 22.1651 155.446 22.2758 155.772 22.406C156.104 22.5297 156.397 22.6664 156.651 22.8162V17.3083H159.542V33.5095H156.651V32.4255C156.397 32.6013 156.097 32.7673 155.752 32.9236C155.407 33.0798 155.036 33.2166 154.639 33.3337C154.242 33.4509 153.829 33.5421 153.399 33.6072C152.976 33.6788 152.556 33.7146 152.139 33.7146C151.163 33.7146 150.264 33.5714 149.444 33.2849C148.63 32.9985 147.93 32.5948 147.344 32.074C146.758 31.5531 146.299 30.9314 145.967 30.2087C145.642 29.4796 145.479 28.6755 145.479 27.7966ZM148.516 27.7966C148.516 28.2589 148.607 28.6951 148.79 29.1052C148.978 29.5154 149.245 29.8767 149.59 30.1892C149.942 30.4952 150.362 30.7393 150.85 30.9216C151.345 31.0974 151.898 31.1853 152.51 31.1853C152.901 31.1853 153.292 31.1495 153.682 31.0779C154.073 30.9998 154.447 30.8923 154.805 30.7556C155.17 30.6189 155.508 30.4529 155.821 30.2576C156.14 30.0623 156.417 29.8442 156.651 29.6033V25.6091C156.358 25.3748 156.049 25.1762 155.723 25.0134C155.398 24.8507 155.066 24.7172 154.727 24.613C154.389 24.5089 154.047 24.434 153.702 24.3884C153.357 24.3363 153.021 24.3103 152.696 24.3103C152.032 24.3103 151.439 24.4014 150.918 24.5837C150.404 24.7595 149.968 25.0037 149.61 25.3162C149.258 25.6287 148.988 25.9965 148.799 26.4197C148.611 26.8429 148.516 27.3018 148.516 27.7966ZM163.086 21.9861H165.977V23.6462C166.615 23.171 167.289 22.7608 167.999 22.4158C168.708 22.0707 169.415 21.807 170.118 21.6248L170.967 24.2712C169.854 24.3819 168.874 24.6326 168.028 25.0232C167.188 25.4073 166.504 25.9509 165.977 26.6541V33.5095H163.086V21.9861ZM172.579 29.8767C172.579 29.3233 172.699 28.8188 172.94 28.363C173.181 27.9073 173.542 27.5167 174.024 27.1912C174.506 26.8591 175.105 26.6052 175.821 26.4294C176.543 26.2472 177.383 26.156 178.34 26.156C179.05 26.156 179.795 26.2081 180.577 26.3123C181.364 26.4164 182.175 26.5759 183.008 26.7908C182.976 26.4262 182.865 26.0909 182.676 25.7849C182.487 25.4724 182.224 25.2055 181.885 24.9841C181.553 24.7563 181.15 24.5805 180.674 24.4568C180.206 24.3331 179.672 24.2712 179.073 24.2712C178.747 24.2712 178.389 24.2908 177.999 24.3298C177.608 24.3689 177.204 24.4275 176.788 24.5056C176.371 24.5837 175.958 24.6814 175.547 24.7986C175.144 24.9158 174.766 25.0557 174.415 25.2185L173.536 22.8455C173.972 22.6892 174.437 22.546 174.932 22.4158C175.433 22.2856 175.944 22.1749 176.465 22.0837C176.986 21.9861 177.507 21.9112 178.028 21.8591C178.549 21.807 179.053 21.781 179.542 21.781C181.696 21.781 183.298 22.3311 184.346 23.4314C185.394 24.5317 185.918 26.2179 185.918 28.49V33.5095H183.028V32.4255C182.728 32.6013 182.4 32.7673 182.042 32.9236C181.69 33.0798 181.306 33.2166 180.889 33.3337C180.472 33.4509 180.023 33.5421 179.542 33.6072C179.066 33.6788 178.562 33.7146 178.028 33.7146C177.129 33.7146 176.338 33.6169 175.655 33.4216C174.978 33.2263 174.411 32.9561 173.956 32.6111C173.5 32.266 173.155 31.8624 172.92 31.4001C172.693 30.9314 172.579 30.4236 172.579 29.8767ZM175.625 29.7791C175.625 29.9679 175.674 30.1501 175.772 30.3259C175.87 30.4952 176.026 30.6482 176.241 30.7849C176.456 30.9151 176.729 31.0225 177.061 31.1072C177.4 31.1853 177.806 31.2244 178.282 31.2244C178.79 31.2244 179.281 31.1788 179.756 31.0876C180.232 30.9965 180.674 30.8761 181.084 30.7263C181.495 30.5766 181.866 30.4041 182.198 30.2087C182.53 30.0134 182.806 29.8116 183.028 29.6033V29.0955C182.585 28.9718 182.146 28.8676 181.709 28.783C181.28 28.6983 180.866 28.6332 180.469 28.5876C180.079 28.5356 179.708 28.4998 179.356 28.4802C179.011 28.4607 178.708 28.4509 178.448 28.4509C177.907 28.4509 177.458 28.4867 177.1 28.5583C176.742 28.63 176.452 28.7276 176.231 28.8513C176.01 28.9685 175.853 29.1085 175.762 29.2712C175.671 29.434 175.625 29.6033 175.625 29.7791Z" fill="black"/>
<path d="M19.5452 30.2168C17.035 27.017 17.5939 22.3881 20.7937 19.8779L37.7886 6.54525C40.9884 4.035 45.6173 4.59397 48.1275 7.79375L19.5452 30.2168Z" fill="#4D47C3"/>
<path d="M23.0298 34.6587L45.8184 16.7808C49.0182 14.2706 53.6471 14.8296 56.1573 18.0293L33.3687 35.9072C30.1689 38.4174 25.54 37.8585 23.0298 34.6587Z" fill="#4D47C3"/>
<path d="M31.0598 44.8943C33.57 48.0941 38.1989 48.653 41.3987 46.1428L58.3936 32.8101C61.5934 30.2999 62.1523 25.671 59.6421 22.4712L31.0598 44.8943Z" fill="#4D47C3"/>
</svg>
