<svg width="1225" height="314" viewBox="0 0 1225 314" fill="none" xmlns="http://www.w3.org/2000/svg">
<path d="M366.499 158.78C370.625 161.11 374.801 163.222 379.024 165.115C383.297 166.96 387.715 168.538 392.278 169.849C396.842 171.111 401.624 172.082 406.624 172.762C411.674 173.442 417.038 173.781 422.718 173.781C429.564 173.781 435.39 173.345 440.196 172.471C445.003 171.548 448.911 170.31 451.921 168.757C454.979 167.155 457.188 165.261 458.548 163.076C459.956 160.892 460.66 158.513 460.66 155.94C460.66 151.813 458.936 148.56 455.489 146.181C452.042 143.754 446.726 142.54 439.541 142.54C436.385 142.54 433.059 142.759 429.564 143.196C426.068 143.584 422.524 144.021 418.932 144.506C415.388 144.992 411.868 145.453 408.372 145.89C404.925 146.278 401.672 146.473 398.614 146.473C393.516 146.473 388.613 145.817 383.903 144.506C379.243 143.196 375.092 141.229 371.451 138.608C367.858 135.986 364.994 132.709 362.857 128.776C360.721 124.844 359.653 120.256 359.653 115.013C359.653 111.906 360.066 108.823 360.891 105.764C361.765 102.706 363.124 99.7927 364.969 97.0254C366.863 94.2095 369.29 91.6121 372.252 89.2332C375.213 86.8058 378.782 84.7182 382.957 82.9704C387.181 81.2226 392.035 79.8632 397.521 78.8923C403.056 77.8727 409.343 77.363 416.383 77.363C421.48 77.363 426.602 77.6543 431.749 78.2369C436.895 78.7709 441.895 79.5477 446.75 80.5672C451.654 81.5867 456.363 82.8247 460.878 84.2812C465.393 85.6891 469.593 87.267 473.477 89.0148L463.354 107.658C460.15 106.25 456.703 104.963 453.013 103.798C449.323 102.584 445.464 101.54 441.434 100.667C437.405 99.7927 433.229 99.113 428.908 98.6275C424.636 98.0934 420.267 97.8264 415.8 97.8264C409.44 97.8264 404.197 98.2876 400.07 99.2101C395.992 100.133 392.739 101.322 390.312 102.778C387.884 104.186 386.185 105.788 385.214 107.585C384.292 109.333 383.831 111.08 383.831 112.828C383.831 116.227 385.36 119.018 388.419 121.203C391.477 123.339 396.138 124.407 402.401 124.407C404.925 124.407 407.814 124.237 411.067 123.897C414.368 123.509 417.815 123.096 421.408 122.659C425.049 122.222 428.739 121.834 432.477 121.494C436.264 121.106 439.929 120.912 443.473 120.912C450.173 120.912 456.096 121.664 461.242 123.169C466.437 124.674 470.782 126.835 474.278 129.65C477.773 132.418 480.419 135.792 482.215 139.773C484.012 143.705 484.91 148.123 484.91 153.027C484.91 159.581 483.381 165.431 480.322 170.577C477.312 175.675 472.991 179.996 467.359 183.54C461.776 187.035 455.028 189.706 447.114 191.55C439.201 193.347 430.389 194.245 420.679 194.245C414.271 194.245 408.008 193.832 401.891 193.007C395.774 192.23 389.899 191.114 384.268 189.657C378.684 188.152 373.344 186.38 368.246 184.341C363.197 182.253 358.512 179.972 354.191 177.496L366.499 158.78ZM502.46 150.041C502.46 143.196 503.747 137.03 506.32 131.544C508.893 126.009 512.437 121.3 516.952 117.416C521.516 113.484 526.905 110.473 533.119 108.386C539.382 106.25 546.155 105.182 553.437 105.182C559.7 105.182 565.453 105.91 570.696 107.366C575.939 108.774 580.479 110.619 584.314 112.901V106.711H605.87V227.744H584.314V184.559C582.421 185.87 580.26 187.108 577.833 188.273C575.405 189.439 572.808 190.458 570.041 191.332C567.273 192.206 564.36 192.886 561.302 193.371C558.292 193.905 555.233 194.172 552.126 194.172C544.844 194.172 538.144 193.104 532.027 190.968C525.958 188.832 520.739 185.822 516.37 181.938C512 178.054 508.578 173.417 506.102 168.028C503.674 162.591 502.46 156.595 502.46 150.041ZM525.109 150.041C525.109 153.488 525.788 156.741 527.148 159.799C528.556 162.858 530.546 165.552 533.119 167.883C535.741 170.165 538.872 171.985 542.513 173.345C546.203 174.655 550.33 175.311 554.893 175.311C557.806 175.311 560.646 175.044 563.414 174.51C566.181 173.927 568.803 173.126 571.279 172.107C573.803 171.087 576.158 169.849 578.343 168.393C580.576 166.936 582.566 165.31 584.314 163.513V133.728C579.896 130.233 575.333 127.757 570.623 126.3C565.963 124.795 561.181 124.043 556.277 124.043C551.325 124.043 546.907 124.723 543.023 126.082C539.188 127.393 535.935 129.213 533.265 131.544C530.643 133.874 528.628 136.617 527.22 139.773C525.812 142.929 525.109 146.351 525.109 150.041ZM632.305 106.638H653.788V148.585C653.788 152.566 654.225 156.207 655.099 159.508C655.973 162.761 657.453 165.552 659.541 167.883C661.677 170.213 664.493 172.034 667.989 173.345C671.533 174.607 675.926 175.238 681.17 175.238C683.646 175.238 686.146 174.971 688.67 174.437C691.244 173.903 693.695 173.175 696.026 172.252C698.356 171.281 700.516 170.14 702.507 168.829C704.546 167.519 706.294 166.086 707.75 164.533V106.638H729.306V192.643H707.75V185.288C702.458 188.443 697.142 190.701 691.802 192.06C686.461 193.42 681.388 194.099 676.582 194.099C668.717 194.099 661.968 193.153 656.337 191.259C650.754 189.366 646.166 186.623 642.573 183.03C639.029 179.389 636.432 174.947 634.781 169.703C633.13 164.412 632.305 158.391 632.305 151.643V106.638ZM752.61 165.552C752.61 161.426 753.508 157.663 755.304 154.265C757.1 150.866 759.795 147.953 763.388 145.526C766.98 143.05 771.447 141.156 776.787 139.846C782.176 138.486 788.439 137.807 795.576 137.807C800.867 137.807 806.426 138.195 812.252 138.972C818.127 139.749 824.171 140.938 830.385 142.54C830.143 139.821 829.317 137.321 827.909 135.039C826.501 132.709 824.535 130.718 822.011 129.068C819.535 127.369 816.525 126.058 812.98 125.135C809.485 124.213 805.504 123.752 801.037 123.752C798.61 123.752 795.94 123.897 793.027 124.189C790.114 124.48 787.104 124.917 783.997 125.499C780.889 126.082 777.807 126.81 774.748 127.684C771.738 128.558 768.922 129.602 766.3 130.816L759.746 113.119C762.999 111.954 766.47 110.886 770.16 109.915C773.898 108.944 777.71 108.119 781.593 107.439C785.477 106.711 789.361 106.153 793.245 105.764C797.129 105.376 800.892 105.182 804.533 105.182C820.603 105.182 832.546 109.284 840.362 117.489C848.179 125.694 852.087 138.268 852.087 155.211V192.643H830.531V184.559C828.298 185.87 825.846 187.108 823.176 188.273C820.554 189.439 817.69 190.458 814.583 191.332C811.475 192.206 808.126 192.886 804.533 193.371C800.989 193.905 797.226 194.172 793.245 194.172C786.545 194.172 780.647 193.444 775.549 191.987C770.5 190.531 766.276 188.516 762.878 185.943C759.479 183.37 756.906 180.36 755.158 176.913C753.459 173.417 752.61 169.631 752.61 165.552ZM775.331 164.824C775.331 166.232 775.695 167.591 776.423 168.902C777.151 170.165 778.316 171.305 779.919 172.325C781.521 173.296 783.56 174.097 786.036 174.728C788.56 175.311 791.595 175.602 795.139 175.602C798.925 175.602 802.591 175.262 806.135 174.583C809.679 173.903 812.98 173.005 816.039 171.888C819.098 170.771 821.865 169.485 824.341 168.028C826.817 166.572 828.88 165.067 830.531 163.513V159.727C827.23 158.804 823.953 158.027 820.7 157.396C817.496 156.765 814.413 156.28 811.451 155.94C808.538 155.551 805.771 155.284 803.149 155.139C800.576 154.993 798.319 154.92 796.377 154.92C792.347 154.92 788.997 155.187 786.327 155.721C783.657 156.255 781.496 156.984 779.846 157.906C778.195 158.78 777.03 159.824 776.35 161.037C775.67 162.251 775.331 163.513 775.331 164.824ZM874.007 150.041C874.007 143.196 875.293 137.03 877.866 131.544C880.439 126.009 883.984 121.3 888.499 117.416C893.062 113.484 898.451 110.473 904.665 108.386C910.928 106.25 917.701 105.182 924.983 105.182C928.09 105.182 931.149 105.376 934.159 105.764C937.218 106.153 940.131 106.687 942.898 107.366C945.714 108.046 948.335 108.871 950.763 109.842C953.239 110.765 955.424 111.784 957.317 112.901V71.8284H978.873V192.643H957.317V184.559C955.424 185.87 953.19 187.108 950.617 188.273C948.044 189.439 945.277 190.458 942.315 191.332C939.354 192.206 936.271 192.886 933.067 193.371C929.911 193.905 926.78 194.172 923.672 194.172C916.39 194.172 909.69 193.104 903.573 190.968C897.504 188.832 892.285 185.822 887.916 181.938C883.547 178.054 880.124 173.417 877.648 168.028C875.22 162.591 874.007 156.595 874.007 150.041ZM896.655 150.041C896.655 153.488 897.335 156.741 898.694 159.799C900.102 162.858 902.092 165.552 904.665 167.883C907.287 170.165 910.419 171.985 914.06 173.345C917.749 174.655 921.876 175.311 926.44 175.311C929.353 175.311 932.266 175.044 935.179 174.51C938.091 173.927 940.883 173.126 943.553 172.107C946.272 171.087 948.797 169.849 951.127 168.393C953.506 166.936 955.569 165.31 957.317 163.513V133.728C955.132 131.981 952.826 130.5 950.399 129.286C947.971 128.073 945.495 127.077 942.971 126.3C940.446 125.524 937.897 124.965 935.324 124.626C932.751 124.237 930.251 124.043 927.823 124.043C922.871 124.043 918.453 124.723 914.569 126.082C910.734 127.393 907.481 129.213 904.811 131.544C902.189 133.874 900.175 136.617 898.767 139.773C897.359 142.929 896.655 146.351 896.655 150.041ZM1005.31 106.711H1026.86V119.091C1031.62 115.547 1036.65 112.488 1041.94 109.915C1047.23 107.342 1052.5 105.376 1057.74 104.016L1064.08 123.752C1055.77 124.577 1048.47 126.446 1042.16 129.359C1035.89 132.223 1030.8 136.277 1026.86 141.521V192.643H1005.31V106.711ZM1076.09 165.552C1076.09 161.426 1076.99 157.663 1078.79 154.265C1080.58 150.866 1083.28 147.953 1086.87 145.526C1090.46 143.05 1094.93 141.156 1100.27 139.846C1105.66 138.486 1111.92 137.807 1119.06 137.807C1124.35 137.807 1129.91 138.195 1135.73 138.972C1141.61 139.749 1147.65 140.938 1153.87 142.54C1153.63 139.821 1152.8 137.321 1151.39 135.039C1149.98 132.709 1148.02 130.718 1145.49 129.068C1143.02 127.369 1140.01 126.058 1136.46 125.135C1132.97 124.213 1128.99 123.752 1124.52 123.752C1122.09 123.752 1119.42 123.897 1116.51 124.189C1113.6 124.48 1110.59 124.917 1107.48 125.499C1104.37 126.082 1101.29 126.81 1098.23 127.684C1095.22 128.558 1092.4 129.602 1089.78 130.816L1083.23 113.119C1086.48 111.954 1089.95 110.886 1093.64 109.915C1097.38 108.944 1101.19 108.119 1105.08 107.439C1108.96 106.711 1112.84 106.153 1116.73 105.764C1120.61 105.376 1124.37 105.182 1128.02 105.182C1144.09 105.182 1156.03 109.284 1163.84 117.489C1171.66 125.694 1175.57 138.268 1175.57 155.211V192.643H1154.01V184.559C1151.78 185.87 1149.33 187.108 1146.66 188.273C1144.04 189.439 1141.17 190.458 1138.07 191.332C1134.96 192.206 1131.61 192.886 1128.02 193.371C1124.47 193.905 1120.71 194.172 1116.73 194.172C1110.03 194.172 1104.13 193.444 1099.03 191.987C1093.98 190.531 1089.76 188.516 1086.36 185.943C1082.96 183.37 1080.39 180.36 1078.64 176.913C1076.94 173.417 1076.09 169.631 1076.09 165.552ZM1098.81 164.824C1098.81 166.232 1099.18 167.591 1099.91 168.902C1100.63 170.165 1101.8 171.305 1103.4 172.325C1105 173.296 1107.04 174.097 1109.52 174.728C1112.04 175.311 1115.08 175.602 1118.62 175.602C1122.41 175.602 1126.07 175.262 1129.62 174.583C1133.16 173.903 1136.46 173.005 1139.52 171.888C1142.58 170.771 1145.35 169.485 1147.82 168.028C1150.3 166.572 1152.36 165.067 1154.01 163.513V159.727C1150.71 158.804 1147.44 158.027 1144.18 157.396C1140.98 156.765 1137.9 156.28 1134.93 155.94C1132.02 155.551 1129.25 155.284 1126.63 155.139C1124.06 154.993 1121.8 154.92 1119.86 154.92C1115.83 154.92 1112.48 155.187 1109.81 155.721C1107.14 156.255 1104.98 156.984 1103.33 157.906C1101.68 158.78 1100.51 159.824 1099.83 161.037C1099.15 162.251 1098.81 163.513 1098.81 164.824Z" fill="black"/>
<path d="M51.4461 179.386C36.288 160.064 39.6634 132.113 58.9851 116.955L161.608 36.4462C180.93 21.2881 208.881 24.6634 224.039 43.9852L51.4461 179.386Z" fill="#4D47C3"/>
<path d="M72.4878 206.208L210.096 98.2533C229.418 83.0953 257.369 86.4706 272.527 105.792L134.919 213.747C115.597 228.905 87.6459 225.53 72.4878 206.208Z" fill="#4D47C3"/>
<path d="M120.976 268.015C136.134 287.337 164.085 290.712 183.407 275.554L286.03 195.045C305.352 179.887 308.727 151.936 293.569 132.614L120.976 268.015Z" fill="#4D47C3"/>
</svg>
