<svg width="111" height="22" viewBox="0 0 111 22" fill="none" xmlns="http://www.w3.org/2000/svg">
<path d="M2.42236 11.9685C2.97575 12.281 3.53564 12.5642 4.10205 12.8181C4.67497 13.0655 5.26742 13.2771 5.87939 13.4529C6.49137 13.6222 7.13265 13.7524 7.80322 13.8435C8.48031 13.9347 9.19971 13.9802 9.96143 13.9802C10.8794 13.9802 11.6606 13.9216 12.3052 13.8044C12.9497 13.6807 13.4738 13.5147 13.8774 13.3064C14.2876 13.0916 14.5838 12.8376 14.7661 12.5447C14.9549 12.2517 15.0493 11.9327 15.0493 11.5876C15.0493 11.0343 14.8182 10.5981 14.356 10.2791C13.8937 9.95353 13.1808 9.79077 12.2173 9.79077C11.7941 9.79077 11.3481 9.82007 10.8794 9.87866C10.4106 9.93075 9.93538 9.98934 9.45361 10.0544C8.97835 10.1195 8.50635 10.1814 8.0376 10.24C7.57536 10.2921 7.13916 10.3181 6.729 10.3181C6.04541 10.3181 5.38786 10.2302 4.75635 10.0544C4.13135 9.87866 3.57471 9.61499 3.08643 9.26343C2.60465 8.91187 2.22054 8.47241 1.93408 7.94507C1.64762 7.41772 1.50439 6.80249 1.50439 6.09937C1.50439 5.6827 1.55973 5.26929 1.67041 4.85913C1.7876 4.44897 1.96989 4.05835 2.21729 3.68726C2.47119 3.30965 2.79671 2.96134 3.19385 2.64233C3.59098 2.31681 4.0695 2.03687 4.62939 1.80249C5.1958 1.56812 5.84684 1.38582 6.58252 1.25562C7.32471 1.1189 8.16781 1.05054 9.11182 1.05054C9.79541 1.05054 10.4823 1.0896 11.1724 1.16772C11.8625 1.23934 12.533 1.34351 13.1841 1.48022C13.8416 1.61694 14.4731 1.78296 15.0786 1.97827C15.6841 2.16707 16.2472 2.37866 16.7681 2.61304L15.4106 5.11304C14.981 4.92424 14.5187 4.75171 14.0239 4.59546C13.5291 4.4327 13.0116 4.29272 12.4712 4.17554C11.9308 4.05835 11.3709 3.9672 10.7915 3.9021C10.2186 3.83049 9.63265 3.79468 9.03369 3.79468C8.18083 3.79468 7.4777 3.85653 6.92432 3.98022C6.37744 4.10392 5.94124 4.26343 5.61572 4.45874C5.2902 4.64754 5.06234 4.86239 4.93213 5.10327C4.80843 5.33765 4.74658 5.57202 4.74658 5.8064C4.74658 6.26213 4.95166 6.63647 5.36182 6.92944C5.77197 7.2159 6.39697 7.35913 7.23682 7.35913C7.57536 7.35913 7.96273 7.33634 8.39893 7.29077C8.84163 7.23869 9.30387 7.18335 9.78564 7.12476C10.2739 7.06616 10.7687 7.01408 11.27 6.96851C11.7778 6.91642 12.2694 6.89038 12.7446 6.89038C13.6431 6.89038 14.4373 6.99129 15.1274 7.19312C15.8241 7.39494 16.4067 7.68465 16.8755 8.06226C17.3442 8.43335 17.6991 8.88582 17.9399 9.41968C18.1808 9.94702 18.3013 10.5395 18.3013 11.197C18.3013 12.0759 18.0962 12.8604 17.686 13.5505C17.2824 14.2341 16.703 14.8136 15.9478 15.2888C15.1991 15.7576 14.2941 16.1156 13.2329 16.363C12.1717 16.6039 10.9901 16.7244 9.68799 16.7244C8.82861 16.7244 7.98877 16.669 7.16846 16.5583C6.34814 16.4542 5.56038 16.3044 4.80518 16.1091C4.05648 15.9073 3.34033 15.6697 2.65674 15.3962C1.97965 15.1163 1.3514 14.8103 0.771973 14.4783L2.42236 11.9685ZM20.6548 10.7966C20.6548 9.87866 20.8273 9.05184 21.1724 8.31616C21.5174 7.57397 21.9927 6.94246 22.5981 6.42163C23.2101 5.89429 23.9328 5.49064 24.7661 5.21069C25.606 4.92424 26.5142 4.78101 27.4907 4.78101C28.3306 4.78101 29.1021 4.87866 29.8052 5.07397C30.5083 5.26278 31.117 5.51017 31.6313 5.81616V4.98608H34.522V21.2166H31.6313V15.4255C31.3774 15.6013 31.0877 15.7673 30.7622 15.9236C30.4367 16.0798 30.0884 16.2166 29.7173 16.3337C29.3462 16.4509 28.9556 16.5421 28.5454 16.6072C28.1418 16.6788 27.7316 16.7146 27.3149 16.7146C26.3384 16.7146 25.4399 16.5714 24.6196 16.2849C23.8058 15.9985 23.106 15.5948 22.52 15.074C21.9341 14.5531 21.4751 13.9314 21.1431 13.2087C20.8175 12.4796 20.6548 11.6755 20.6548 10.7966ZM23.6919 10.7966C23.6919 11.2589 23.783 11.6951 23.9653 12.1052C24.1541 12.5154 24.4211 12.8767 24.7661 13.1892C25.1177 13.4952 25.5376 13.7393 26.0259 13.9216C26.5207 14.0974 27.0741 14.1853 27.686 14.1853C28.0767 14.1853 28.4575 14.1495 28.8286 14.0779C29.1997 13.9998 29.5513 13.8923 29.8833 13.7556C30.2218 13.6189 30.5376 13.4529 30.8306 13.2576C31.13 13.0623 31.397 12.8442 31.6313 12.6033V8.60913C31.0389 8.14038 30.4269 7.80835 29.7954 7.61304C29.1704 7.41121 28.5291 7.3103 27.8716 7.3103C27.2075 7.3103 26.6151 7.40145 26.0942 7.58374C25.5799 7.75952 25.1437 8.00366 24.7856 8.31616C24.4341 8.62866 24.1639 8.9965 23.9751 9.41968C23.7863 9.84285 23.6919 10.3018 23.6919 10.7966ZM38.0669 4.97632H40.9478V10.6013C40.9478 11.1352 41.0063 11.6235 41.1235 12.0662C41.2407 12.5024 41.4393 12.8767 41.7192 13.1892C42.0057 13.5017 42.3833 13.7458 42.8521 13.9216C43.3273 14.0909 43.9165 14.1755 44.6196 14.1755C44.9517 14.1755 45.2869 14.1397 45.6255 14.0681C45.9705 13.9965 46.2993 13.8988 46.6118 13.7751C46.9243 13.6449 47.214 13.4919 47.481 13.3162C47.7544 13.1404 47.9888 12.9483 48.1841 12.74V4.97632H51.0747V16.5095H48.1841V15.5232C47.4744 15.9464 46.7616 16.2491 46.0454 16.4314C45.3293 16.6137 44.6489 16.7048 44.0044 16.7048C42.9497 16.7048 42.0448 16.5779 41.2896 16.324C40.5409 16.0701 39.9256 15.7022 39.4438 15.2205C38.9686 14.7322 38.6203 14.1365 38.3989 13.4333C38.1776 12.7237 38.0669 11.9164 38.0669 11.0115V4.97632ZM54.1997 12.8767C54.1997 12.3233 54.3201 11.8188 54.561 11.363C54.8019 10.9073 55.1632 10.5167 55.645 10.1912C56.1268 9.85913 56.7257 9.60522 57.4419 9.42944C58.1646 9.24715 59.0044 9.15601 59.9614 9.15601C60.6711 9.15601 61.4165 9.20809 62.1978 9.31226C62.9855 9.41642 63.7961 9.57593 64.6294 9.79077C64.5968 9.42619 64.4862 9.0909 64.2974 8.78491C64.1086 8.47241 63.8449 8.20549 63.5063 7.98413C63.1743 7.75627 62.7707 7.58049 62.2954 7.45679C61.8267 7.33309 61.2928 7.27124 60.6938 7.27124C60.3683 7.27124 60.0103 7.29077 59.6196 7.32983C59.229 7.3689 58.8254 7.42749 58.4087 7.50562C57.992 7.58374 57.5786 7.6814 57.1685 7.79858C56.7648 7.91577 56.3872 8.05575 56.0356 8.21851L55.1567 5.84546C55.5929 5.68921 56.0584 5.54598 56.5532 5.41577C57.0545 5.28556 57.5656 5.17489 58.0864 5.08374C58.6073 4.98608 59.1281 4.91121 59.6489 4.85913C60.1698 4.80705 60.6743 4.78101 61.1626 4.78101C63.3175 4.78101 64.9191 5.33114 65.9673 6.4314C67.0155 7.53166 67.5396 9.21785 67.5396 11.49V16.5095H64.6489V15.4255C64.3494 15.6013 64.0207 15.7673 63.6626 15.9236C63.311 16.0798 62.9269 16.2166 62.5103 16.3337C62.0936 16.4509 61.6444 16.5421 61.1626 16.6072C60.6873 16.6788 60.1828 16.7146 59.6489 16.7146C58.7505 16.7146 57.9595 16.6169 57.2759 16.4216C56.5988 16.2263 56.0324 15.9561 55.5767 15.6111C55.1209 15.266 54.7759 14.8624 54.5415 14.4001C54.3136 13.9314 54.1997 13.4236 54.1997 12.8767ZM57.2466 12.7791C57.2466 12.9679 57.2954 13.1501 57.3931 13.3259C57.4907 13.4952 57.647 13.6482 57.8618 13.7849C58.0767 13.9151 58.3501 14.0225 58.6821 14.1072C59.0207 14.1853 59.4276 14.2244 59.9028 14.2244C60.4106 14.2244 60.9022 14.1788 61.3774 14.0876C61.8527 13.9965 62.2954 13.8761 62.7056 13.7263C63.1157 13.5766 63.4868 13.4041 63.8188 13.2087C64.1509 13.0134 64.4276 12.8116 64.6489 12.6033V12.0955C64.2062 11.9718 63.7668 11.8676 63.3306 11.783C62.9009 11.6983 62.4875 11.6332 62.0903 11.5876C61.6997 11.5356 61.3286 11.4998 60.9771 11.4802C60.632 11.4607 60.3293 11.4509 60.0688 11.4509C59.5285 11.4509 59.0793 11.4867 58.7212 11.5583C58.3631 11.63 58.0734 11.7276 57.8521 11.8513C57.6307 11.9685 57.4744 12.1085 57.3833 12.2712C57.2922 12.434 57.2466 12.6033 57.2466 12.7791ZM70.479 10.7966C70.479 9.87866 70.6515 9.05184 70.9966 8.31616C71.3416 7.57397 71.8169 6.94246 72.4224 6.42163C73.0343 5.89429 73.757 5.49064 74.5903 5.21069C75.4302 4.92424 76.3384 4.78101 77.3149 4.78101C77.7316 4.78101 78.1418 4.80705 78.5454 4.85913C78.9556 4.91121 79.3462 4.98283 79.7173 5.07397C80.0949 5.16512 80.4465 5.2758 80.772 5.40601C81.104 5.5297 81.397 5.66642 81.6509 5.81616V0.30835H84.5415V16.5095H81.6509V15.4255C81.397 15.6013 81.0975 15.7673 80.7524 15.9236C80.4074 16.0798 80.0363 16.2166 79.6392 16.3337C79.242 16.4509 78.8286 16.5421 78.3989 16.6072C77.9757 16.6788 77.5558 16.7146 77.1392 16.7146C76.1626 16.7146 75.2642 16.5714 74.4438 16.2849C73.63 15.9985 72.9302 15.5948 72.3442 15.074C71.7583 14.5531 71.2993 13.9314 70.9673 13.2087C70.6418 12.4796 70.479 11.6755 70.479 10.7966ZM73.5161 10.7966C73.5161 11.2589 73.6073 11.6951 73.7896 12.1052C73.9784 12.5154 74.2453 12.8767 74.5903 13.1892C74.9419 13.4952 75.3618 13.7393 75.8501 13.9216C76.3449 14.0974 76.8983 14.1853 77.5103 14.1853C77.9009 14.1853 78.2915 14.1495 78.6821 14.0779C79.0728 13.9998 79.4471 13.8923 79.8052 13.7556C80.1698 13.6189 80.5083 13.4529 80.8208 13.2576C81.1398 13.0623 81.4165 12.8442 81.6509 12.6033V8.60913C81.3579 8.37476 81.0487 8.17619 80.7231 8.01343C80.3976 7.85067 80.0656 7.7172 79.7271 7.61304C79.3885 7.50887 79.0467 7.434 78.7017 7.38843C78.3566 7.33634 78.0213 7.3103 77.6958 7.3103C77.0317 7.3103 76.4393 7.40145 75.9185 7.58374C75.4041 7.75952 74.9679 8.00366 74.6099 8.31616C74.2583 8.62866 73.9881 8.9965 73.7993 9.41968C73.6105 9.84285 73.5161 10.3018 73.5161 10.7966ZM88.0864 4.98608H90.9771V6.64624C91.6151 6.17098 92.2889 5.76082 92.9985 5.41577C93.7082 5.07072 94.4146 4.80705 95.1177 4.62476L95.9673 7.27124C94.854 7.38192 93.8742 7.63257 93.0278 8.02319C92.188 8.40731 91.5044 8.95093 90.9771 9.65405V16.5095H88.0864V4.98608ZM97.5786 12.8767C97.5786 12.3233 97.6991 11.8188 97.9399 11.363C98.1808 10.9073 98.5422 10.5167 99.0239 10.1912C99.5057 9.85913 100.105 9.60522 100.821 9.42944C101.543 9.24715 102.383 9.15601 103.34 9.15601C104.05 9.15601 104.795 9.20809 105.577 9.31226C106.364 9.41642 107.175 9.57593 108.008 9.79077C107.976 9.42619 107.865 9.0909 107.676 8.78491C107.487 8.47241 107.224 8.20549 106.885 7.98413C106.553 7.75627 106.15 7.58049 105.674 7.45679C105.206 7.33309 104.672 7.27124 104.073 7.27124C103.747 7.27124 103.389 7.29077 102.999 7.32983C102.608 7.3689 102.204 7.42749 101.788 7.50562C101.371 7.58374 100.958 7.6814 100.547 7.79858C100.144 7.91577 99.7661 8.05575 99.4146 8.21851L98.5356 5.84546C98.9718 5.68921 99.4373 5.54598 99.9321 5.41577C100.433 5.28556 100.944 5.17489 101.465 5.08374C101.986 4.98608 102.507 4.91121 103.028 4.85913C103.549 4.80705 104.053 4.78101 104.542 4.78101C106.696 4.78101 108.298 5.33114 109.346 6.4314C110.394 7.53166 110.918 9.21785 110.918 11.49V16.5095H108.028V15.4255C107.728 15.6013 107.4 15.7673 107.042 15.9236C106.69 16.0798 106.306 16.2166 105.889 16.3337C105.472 16.4509 105.023 16.5421 104.542 16.6072C104.066 16.6788 103.562 16.7146 103.028 16.7146C102.129 16.7146 101.338 16.6169 100.655 16.4216C99.9777 16.2263 99.4113 15.9561 98.9556 15.6111C98.4998 15.266 98.1548 14.8624 97.9204 14.4001C97.6925 13.9314 97.5786 13.4236 97.5786 12.8767ZM100.625 12.7791C100.625 12.9679 100.674 13.1501 100.772 13.3259C100.87 13.4952 101.026 13.6482 101.241 13.7849C101.456 13.9151 101.729 14.0225 102.061 14.1072C102.4 14.1853 102.806 14.2244 103.282 14.2244C103.79 14.2244 104.281 14.1788 104.756 14.0876C105.232 13.9965 105.674 13.8761 106.084 13.7263C106.495 13.5766 106.866 13.4041 107.198 13.2087C107.53 13.0134 107.806 12.8116 108.028 12.6033V12.0955C107.585 11.9718 107.146 11.8676 106.709 11.783C106.28 11.6983 105.866 11.6332 105.469 11.5876C105.079 11.5356 104.708 11.4998 104.356 11.4802C104.011 11.4607 103.708 11.4509 103.448 11.4509C102.907 11.4509 102.458 11.4867 102.1 11.5583C101.742 11.63 101.452 11.7276 101.231 11.8513C101.01 11.9685 100.853 12.1085 100.762 12.2712C100.671 12.434 100.625 12.6033 100.625 12.7791Z" fill="black"/>
</svg>
